<svg width="100" height="100" xmlns="http://www.w3.org/2000/svg">
  <defs>
    <pattern id="topography" x="0" y="0" width="100" height="100" patternUnits="userSpaceOnUse">
      <path d="M10 10 Q 20 5, 30 10 T 50 10" stroke="currentColor" stroke-width="0.5" fill="none" opacity="0.3"/>
      <path d="M15 25 Q 25 20, 35 25 T 55 25" stroke="currentColor" stroke-width="0.5" fill="none" opacity="0.3"/>
      <path d="M5 40 Q 15 35, 25 40 T 45 40" stroke="currentColor" stroke-width="0.5" fill="none" opacity="0.3"/>
      <path d="M20 55 Q 30 50, 40 55 T 60 55" stroke="currentColor" stroke-width="0.5" fill="none" opacity="0.3"/>
      <path d="M10 70 Q 20 65, 30 70 T 50 70" stroke="currentColor" stroke-width="0.5" fill="none" opacity="0.3"/>
      <path d="M25 85 Q 35 80, 45 85 T 65 85" stroke="currentColor" stroke-width="0.5" fill="none" opacity="0.3"/>
      <path d="M60 15 Q 70 10, 80 15 T 100 15" stroke="currentColor" stroke-width="0.5" fill="none" opacity="0.3"/>
      <path d="M55 30 Q 65 25, 75 30 T 95 30" stroke="currentColor" stroke-width="0.5" fill="none" opacity="0.3"/>
      <path d="M65 45 Q 75 40, 85 45 T 105 45" stroke="currentColor" stroke-width="0.5" fill="none" opacity="0.3"/>
      <path d="M50 60 Q 60 55, 70 60 T 90 60" stroke="currentColor" stroke-width="0.5" fill="none" opacity="0.3"/>
      <path d="M70 75 Q 80 70, 90 75 T 110 75" stroke="currentColor" stroke-width="0.5" fill="none" opacity="0.3"/>
      <path d="M60 90 Q 70 85, 80 90 T 100 90" stroke="currentColor" stroke-width="0.5" fill="none" opacity="0.3"/>
    </pattern>
  </defs>
  <rect width="100" height="100" fill="url(#topography)"/>
</svg>
